<?xml version="1.0" encoding="UTF-8"?>
<svg version="1.1" xmlns="http://www.w3.org/2000/svg" width="165" height="135">
<circle cx="75" cy="75" r="75" fill="#FCFDFB"/>
<path d="M0 0 C54.45 0 108.9 0 165 0 C165 44.55 165 89.1 165 135 C110.55 135 56.1 135 0 135 C0 90.45 0 45.9 0 0 Z " fill="#FCFDFB" transform="translate(0,0)"/>
<path d="M0 0 C4.78456184 0.97313122 6.11377378 2.98143427 9.0546875 6.70703125 C11.80515548 10.14840625 14.52115613 12.36121871 18.6875 13.75 C18.6875 11.44 18.6875 9.13 18.6875 6.75 C18.0275 6.75 17.3675 6.75 16.6875 6.75 C16.6875 6.09 16.6875 5.43 16.6875 4.75 C20.3175 4.75 23.9475 4.75 27.6875 4.75 C27.3575 5.74 27.0275 6.73 26.6875 7.75 C26.60776524 9.08525717 26.57978662 10.42412083 26.58984375 11.76171875 C26.59306641 12.51904297 26.59628906 13.27636719 26.59960938 14.05664062 C26.60798828 14.84232422 26.61636719 15.62800781 26.625 16.4375 C26.62951172 17.23478516 26.63402344 18.03207031 26.63867188 18.85351562 C26.6504415 20.81904257 26.66837652 22.78453085 26.6875 24.75 C27.37199219 24.62367187 28.05648437 24.49734375 28.76171875 24.3671875 C33.26281544 24.95611604 35.41717842 27.71313172 38.5 30.875 C39.09748047 31.44476563 39.69496094 32.01453125 40.31054688 32.6015625 C43.24869023 35.55649524 44.59474772 36.92740909 45.07421875 41.1796875 C44.94660156 42.02789062 44.81898437 42.87609375 44.6875 43.75 C42.0475 43.75 39.4075 43.75 36.6875 43.75 C37.0175 51.01 37.3475 58.27 37.6875 65.75 C38.698125 64.285625 39.70875 62.82125 40.75 61.3125 C44.23530856 56.32637489 47.90330065 51.51188003 51.6875 46.75 C53.0075 47.08 54.3275 47.41 55.6875 47.75 C55.6875 53.69 55.6875 59.63 55.6875 65.75 C56.6775 65.75 57.6675 65.75 58.6875 65.75 C59.0278125 64.63625 59.0278125 64.63625 59.375 63.5 C61.24640084 59.57896968 64.02384735 57.85910177 67.5625 55.5 C70.62209743 54.42014208 73.47461296 54.62642742 76.6875 54.75 C77.359375 56.47265625 77.359375 56.47265625 77.6875 58.75 C76.578125 60.93359375 76.578125 60.93359375 74.9375 63.1875 C72.70116124 66.30860385 70.65486317 69.45251726 68.6875 72.75 C67.51865629 74.53320255 66.33103686 76.30423892 65.125 78.0625 C64.52558594 78.94550781 63.92617187 79.82851562 63.30859375 80.73828125 C62.77363281 81.40214844 62.23867187 82.06601563 61.6875 82.75 C61.0275 82.75 60.3675 82.75 59.6875 82.75 C59.56375 83.306875 59.44 83.86375 59.3125 84.4375 C57.04124729 92.84113504 52.0363912 97.57901793 45.6171875 103.08984375 C41.33995364 106.76965021 38.74919402 109.52704181 36.6875 114.75 C35.37834721 115.78145371 34.04667857 116.78542166 32.6875 117.75 C32.1925 119.235 32.1925 119.235 31.6875 120.75 C30.0375 120.42 28.3875 120.09 26.6875 119.75 C27.28246754 116.42258892 28.39227173 114.57909592 30.625 112.0625 C31.14964844 111.46050781 31.67429687 110.85851562 32.21484375 110.23828125 C33.6875 108.75 33.6875 108.75 35.6875 107.75 C36.244375 106.698125 36.244375 106.698125 36.8125 105.625 C38.57364947 102.92457081 39.98339647 101.56652662 42.4375 99.5625 C47.17632978 95.54010532 50.33250173 90.94460867 53.6875 85.75 C54.45253777 84.59205973 55.21819513 83.43452864 55.984375 82.27734375 C59.93047959 76.2727873 63.67859783 70.29109168 66.6875 63.75 C65.90375 64.575 65.12 65.4 64.3125 66.25 C61.6875 68.75 61.6875 68.75 59.6875 68.75 C59.3575 69.74 59.0275 70.73 58.6875 71.75 C57.02083333 73.41666667 55.35416667 75.08333333 53.6875 76.75 C52.11601712 78.76260088 50.60888966 80.81055598 49.1171875 82.8828125 C47.75111882 84.66691313 46.27327998 86.16422002 44.6875 87.75 C44.0275 88.74 43.3675 89.73 42.6875 90.75 C40.8828125 91.91796875 40.8828125 91.91796875 38.8125 92.9375 C38.13445312 93.28167969 37.45640625 93.62585938 36.7578125 93.98046875 C34.6875 94.75 34.6875 94.75 30.6875 94.75 C30.6875 95.41 30.6875 96.07 30.6875 96.75 C28.36063547 97.91343227 26.84028587 97.94895988 24.25 98 C23.07630859 98.03867188 23.07630859 98.03867188 21.87890625 98.078125 C19.17011649 97.67253081 18.3658906 96.86466951 16.6875 94.75 C15.27115167 91.91730334 15.3411995 89.27533562 15.125 86.125 C15.04121094 84.93648438 14.95742187 83.74796875 14.87109375 82.5234375 C14.81050781 81.60820313 14.74992187 80.69296875 14.6875 79.75 C14.0275 79.75 13.3675 79.75 12.6875 79.75 C12.55794922 81.09191406 12.55794922 81.09191406 12.42578125 82.4609375 C11.53362774 90.13836863 10.46691494 98.97058506 4.6875 104.75 C3.86345297 112.04870231 5.4782275 116.00198521 9.375 122.171875 C10.79911612 124.96924595 10.95439245 126.65849573 10.6875 129.75 C8.890625 129.66015625 8.890625 129.66015625 6.6875 128.75 C4.984375 125.80859375 4.984375 125.80859375 3.4375 122.1875 C2.91671875 120.98996094 2.3959375 119.79242188 1.859375 118.55859375 C1.47265625 117.63175781 1.0859375 116.70492187 0.6875 115.75 C0.0275 115.75 -0.6325 115.75 -1.3125 115.75 C-1.49425781 116.41386719 -1.67601563 117.07773438 -1.86328125 117.76171875 C-4.59295326 127.35056657 -4.59295326 127.35056657 -7.3125 130.75 C-8.3025 130.75 -9.2925 130.75 -10.3125 130.75 C-10.84386842 125.86141057 -10.2088499 123.1951801 -7.8125 118.875 C-5.22371827 114.03574324 -4.3140544 110.18834197 -5.3125 104.75 C-5.76625 103.8425 -6.22 102.935 -6.6875 102 C-10.63778667 94.09942667 -10.665795 84.44498261 -10.3125 75.75 C-12.91390904 76.61001961 -12.91390904 76.61001961 -15.3125 78.75 C-16.20145864 81.7287376 -16.33311782 84.71913324 -16.5 87.8125 C-16.6108491 89.44975396 -16.72899882 91.0865348 -16.85546875 92.72265625 C-16.89696045 93.44718994 -16.93845215 94.17172363 -16.98120117 94.91821289 C-17.3125 96.75 -17.3125 96.75 -19.3125 98.75 C-23.63069231 99.40324324 -27.31998661 99.23569804 -31.25 97.3125 C-32.2709375 96.5390625 -32.2709375 96.5390625 -33.3125 95.75 C-34.3025 95.255 -34.3025 95.255 -35.3125 94.75 C-35.3125 94.09 -35.3125 93.43 -35.3125 92.75 C-36.281875 92.646875 -37.25125 92.54375 -38.25 92.4375 C-44.40860613 90.67435067 -47.69305458 84.65416325 -51.3125 79.75 C-52.47652344 78.21472656 -52.47652344 78.21472656 -53.6640625 76.6484375 C-59.3125 69.08392226 -59.3125 69.08392226 -59.3125 66.75 C-60.0859375 66.37875 -60.0859375 66.37875 -60.875 66 C-64.08434151 64.35418384 -67.18835664 62.5523904 -70.3125 60.75 C-67.43370513 66.14774037 -64.0208355 70.94603029 -60.3828125 75.859375 C-58.42241205 78.59653789 -56.63667262 81.38216085 -54.875 84.25 C-49.8912925 92.18533382 -44.24426277 99.44171692 -36.94921875 105.359375 C-32.91986887 108.78287991 -29.75670526 112.00490792 -28.4375 117.1875 C-28.39625 118.033125 -28.355 118.87875 -28.3125 119.75 C-32.98319472 118.54896421 -34.47635955 116.36592739 -36.99609375 112.55078125 C-39.0188733 109.78371486 -41.6381956 107.86715765 -44.3125 105.75 C-49.15120968 101.23387097 -49.15120968 101.23387097 -50.3125 97.75 C-51.1375 96.96625 -51.9625 96.1825 -52.8125 95.375 C-55.40499105 92.6528844 -55.99872501 91.41070817 -56.3125 87.75 C-57.7975 87.255 -57.7975 87.255 -59.3125 86.75 C-65.5434458 79.36751232 -76.3125 65.61788208 -76.3125 55.75 C-67.37632979 55.45212766 -67.37632979 55.45212766 -64.3125 57.75 C-63.69375 58.554375 -63.075 59.35875 -62.4375 60.1875 C-60.09507213 63.3624889 -60.09507213 63.3624889 -54.3125 65.75 C-54.3125 59.81 -54.3125 53.87 -54.3125 47.75 C-49.09521876 49.05432031 -47.3347719 51.46278846 -44.3125 55.75 C-42.43307808 59.22693056 -41.08894611 62.86776944 -40.3125 66.75 C-41.3025 66.75 -42.2925 66.75 -43.3125 66.75 C-42.9825 73.02 -42.6525 79.29 -42.3125 85.75 C-40.9925 86.08 -39.6725 86.41 -38.3125 86.75 C-38.40789063 85.64140625 -38.50328125 84.5328125 -38.6015625 83.390625 C-38.7141391 81.92712917 -38.82608524 80.46358474 -38.9375 79 C-39.00195312 78.27039063 -39.06640625 77.54078125 -39.1328125 76.7890625 C-39.41631649 72.89088264 -39.58331383 70.04354678 -37.3125 66.75 C-36.3225 67.245 -36.3225 67.245 -35.3125 67.75 C-35.3125 59.5 -35.3125 51.25 -35.3125 42.75 C-37.9525 43.08 -40.5925 43.41 -43.3125 43.75 C-44.3125 42.75 -44.3125 42.75 -44.6875 39.9609375 C-44.3125 36.75 -44.3125 36.75 -42.1875 34.4765625 C-41.23875 33.78304687 -40.29 33.08953125 -39.3125 32.375 C-35.69146921 29.61170378 -32.29921012 26.89424635 -29.125 23.625 C-23.06698751 17.40724276 -16.44268078 11.98713179 -9.609375 6.64453125 C-7.26563054 4.78797435 -7.26563054 4.78797435 -5.22265625 2.55859375 C-3.3125 0.75 -3.3125 0.75 0 0 Z " fill="#6D9B38" transform="translate(79.3125,2.25)"/>
<path d="M0 0 C2.63348 1.92836517 4.88883376 4.18929886 7.1875 6.5 C8.4063845 7.70175423 9.62914087 8.89959232 10.85546875 10.09375 C11.46049225 10.69573212 12.06551575 11.29771423 12.68887329 11.91793823 C14.98287459 14.0828374 14.98287459 14.0828374 17.76828003 15.86160278 C25.40136613 21.13538735 25.40136613 21.13538735 26.99452209 26.09771729 C27.33675694 29.74289726 27.34362316 33.23950713 27.21484375 36.8984375 C27.20572716 38.86630722 27.20572716 38.86630722 27.19642639 40.87393188 C27.18114749 43.63397333 27.13002487 46.39002742 27.04956055 49.14892578 C26.9471122 52.68354714 26.91106088 56.2148602 26.89845943 59.7508297 C26.88266812 63.1338634 26.8302489 66.51576831 26.77734375 69.8984375 C26.76348129 71.16714691 26.74961884 72.43585632 26.7353363 73.74301147 C26.70013382 74.91498077 26.66493134 76.08695007 26.62866211 77.29443359 C26.6043663 78.32651947 26.5800705 79.35860535 26.55503845 80.42196655 C26 83 26 83 24.12867737 84.8722229 C22 86 22 86 19.3125 85.75 C17 85 17 85 16 84 C15.89319773 81.81352019 15.81497076 79.62562237 15.75 77.4375 C15.38259782 71.89820558 14.62076235 68.02387138 11.64453125 63.35546875 C9.28037109 61.40686168 6.98858405 61.31828627 4 61 C2.76299913 68.44602466 1.75805393 75.80341852 1.34375 83.34375 C0.97195196 86.21673488 0.30755826 88.41644524 -1 91 C-3.625 92.3125 -3.625 92.3125 -6 93 C-12.91959729 84.56792243 -11.56940539 71.40225931 -12 61 C-13.44377535 61.37229427 -14.87999097 61.77396868 -16.3125 62.1875 C-17.11300781 62.40792969 -17.91351563 62.62835938 -18.73828125 62.85546875 C-21.81322992 64.41153086 -22.62113357 65.85635799 -24 69 C-24.50034279 72.4753519 -24.50034279 72.4753519 -24.5625 76.125 C-24.79141104 82.68711656 -24.79141104 82.68711656 -27 86 C-30 86.375 -30 86.375 -33 86 C-35.25897642 82.61153537 -35.27715293 81.33729908 -35.35400391 77.35449219 C-35.37967438 76.19608826 -35.40534485 75.03768433 -35.43179321 73.84417725 C-35.45395401 71.96451263 -35.45395401 71.96451263 -35.4765625 70.046875 C-35.49270599 68.75815491 -35.50884949 67.46943481 -35.52548218 66.1416626 C-35.55551117 63.41134166 -35.57519731 60.68112424 -35.59033203 57.95068359 C-35.61242923 54.46510455 -35.68118557 50.98209131 -35.76067543 47.49741745 C-35.82578021 44.15984288 -35.83457858 40.82253523 -35.8515625 37.484375 C-35.88657867 36.23936218 -35.92159485 34.99434937 -35.95767212 33.71160889 C-35.91516428 25.20433354 -35.91516428 25.20433354 -33.25360107 21.70178223 C-31.25036321 19.94373516 -29.2165661 18.47314729 -27 17 C-25.700625 15.700625 -25.700625 15.700625 -24.375 14.375 C-21.72421549 11.72421549 -18.88381719 9.39295469 -16 7 C-15.2575 6.236875 -14.515 5.47375 -13.75 4.6875 C-12 3 -12 3 -10 3 C-9.67 2.01 -9.34 1.02 -9 0 C-5.2933918 -1.23553607 -3.75309852 -1.11469274 0 0 Z " fill="#FCFCFA" transform="translate(84,11)"/>
<path d="M0 0 C1.32 0.33 2.64 0.66 4 1 C4 6.94 4 12.88 4 19 C4.99 19 5.98 19 7 19 C7.226875 18.2575 7.45375 17.515 7.6875 16.75 C9.55890084 12.82896968 12.33634735 11.10910177 15.875 8.75 C18.93459743 7.67014208 21.78711296 7.87642742 25 8 C25.671875 9.72265625 25.671875 9.72265625 26 12 C24.890625 14.18359375 24.890625 14.18359375 23.25 16.4375 C21.01366124 19.55860385 18.96736317 22.70251726 17 26 C15.83115629 27.78320255 14.64353686 29.55423892 13.4375 31.3125 C12.83808594 32.19550781 12.23867187 33.07851562 11.62109375 33.98828125 C11.08613281 34.65214844 10.55117187 35.31601563 10 36 C9.34 36 8.68 36 8 36 C7.87625 36.556875 7.7525 37.11375 7.625 37.6875 C5.35374729 46.09113504 0.3488912 50.82901793 -6.0703125 56.33984375 C-10.34754636 60.01965021 -12.93830598 62.77704181 -15 68 C-16.30915279 69.03145371 -17.64082143 70.03542166 -19 71 C-19.33 71.99 -19.66 72.98 -20 74 C-21.65 73.67 -23.3 73.34 -25 73 C-24.40503246 69.67258892 -23.29522827 67.82909592 -21.0625 65.3125 C-20.53785156 64.71050781 -20.01320313 64.10851562 -19.47265625 63.48828125 C-18 62 -18 62 -16 61 C-15.62875 60.29875 -15.2575 59.5975 -14.875 58.875 C-13.11385053 56.17457081 -11.70410353 54.81652662 -9.25 52.8125 C-4.51117022 48.79010532 -1.35499827 44.19460867 2 39 C2.76503777 37.84205973 3.53069513 36.68452864 4.296875 35.52734375 C8.24297959 29.5227873 11.99109783 23.54109168 15 17 C14.21625 17.825 13.4325 18.65 12.625 19.5 C10 22 10 22 8 22 C7.505 23.485 7.505 23.485 7 25 C5.33333333 26.66666667 3.66666667 28.33333333 2 30 C-0.07119739 32.61573754 -2.04693084 35.29523412 -4 38 C-4 35 -4 35 -3 33 C-4.32 32.67 -5.64 32.34 -7 32 C-7.16742302 29.37504621 -7.3339717 26.75004205 -7.5 24.125 C-7.54769531 23.37863281 -7.59539062 22.63226563 -7.64453125 21.86328125 C-8 16.2265625 -8 16.2265625 -8 14 C-8.99 14.495 -8.99 14.495 -10 15 C-8.59601721 10.89889238 -6.62912962 8.01910841 -3.875 4.6875 C-3.15054688 3.80449219 -2.42609375 2.92148437 -1.6796875 2.01171875 C-1.12539062 1.34785156 -0.57109375 0.68398438 0 0 Z " fill="#779C3B" transform="translate(131,49)"/>
<path d="M0 0 C4.78456184 0.97313122 6.11377378 2.98143427 9.0546875 6.70703125 C11.80515548 10.14840625 14.52115613 12.36121871 18.6875 13.75 C18.6875 11.44 18.6875 9.13 18.6875 6.75 C18.0275 6.75 17.3675 6.75 16.6875 6.75 C16.6875 6.09 16.6875 5.43 16.6875 4.75 C20.3175 4.75 23.9475 4.75 27.6875 4.75 C27.3575 5.74 27.0275 6.73 26.6875 7.75 C26.60776524 9.08525717 26.57978662 10.42412083 26.58984375 11.76171875 C26.59306641 12.51904297 26.59628906 13.27636719 26.59960938 14.05664062 C26.60798828 14.84232422 26.61636719 15.62800781 26.625 16.4375 C26.62951172 17.23478516 26.63402344 18.03207031 26.63867188 18.85351562 C26.6504415 20.81904257 26.66837652 22.78453085 26.6875 24.75 C27.37199219 24.62367187 28.05648437 24.49734375 28.76171875 24.3671875 C33.26281544 24.95611604 35.41717842 27.71313172 38.5 30.875 C39.09748047 31.44476563 39.69496094 32.01453125 40.31054688 32.6015625 C43.24869023 35.55649524 44.59474772 36.92740909 45.07421875 41.1796875 C44.94660156 42.02789062 44.81898437 42.87609375 44.6875 43.75 C42.0475 43.75 39.4075 43.75 36.6875 43.75 C36.6875 51.01 36.6875 58.27 36.6875 65.75 C36.3575 65.75 36.0275 65.75 35.6875 65.75 C35.6875 57.83 35.6875 49.91 35.6875 41.75 C37.0075 41.09 38.3275 40.43 39.6875 39.75 C40.49278889 37.69999129 40.49278889 37.69999129 40.6875 35.75 C39.6975 35.75 38.7075 35.75 37.6875 35.75 C36.6810725 34.08720673 35.68164593 32.42016516 34.6875 30.75 C32.62049345 29.42206394 32.62049345 29.42206394 30.6875 28.75 C30.6875 29.74 30.6875 30.73 30.6875 31.75 C26.81926912 30.14587582 24.06221259 27.52276527 21.0625 24.6875 C20.53833496 24.2023291 20.01416992 23.7171582 19.47412109 23.21728516 C16.92198209 20.8549938 14.39659257 18.47006254 11.890625 16.05859375 C11.03984375 15.25550781 10.1890625 14.45242187 9.3125 13.625 C8.56226563 12.90054687 7.81203125 12.17609375 7.0390625 11.4296875 C4.19854307 9.40074505 2.14813027 8.98319611 -1.3125 8.75 C-4.40101102 9.53105168 -4.40101102 9.53105168 -6.375 11.8125 C-7.014375 12.451875 -7.65375 13.09125 -8.3125 13.75 C-8.9725 13.75 -9.6325 13.75 -10.3125 13.75 C-10.5703125 14.34296875 -10.828125 14.9359375 -11.09375 15.546875 C-12.41019895 17.92660965 -13.73830782 19.25978792 -15.8125 21 C-16.4209375 21.52078125 -17.029375 22.0415625 -17.65625 22.578125 C-19.3125 23.75 -19.3125 23.75 -21.3125 23.75 C-21.621875 24.5853125 -21.621875 24.5853125 -21.9375 25.4375 C-23.3125 27.75 -23.3125 27.75 -26.34814453 29.57104492 C-28.65163164 31.46515888 -29.25582245 32.48247409 -29.88226318 35.43936157 C-30.10474944 38.94604311 -30.14289698 42.4120529 -30.1171875 45.92578125 C-30.13089386 47.20607712 -30.14460022 48.48637299 -30.15872192 49.8054657 C-30.19469922 53.19720211 -30.19514175 56.58803609 -30.18804932 59.97991943 C-30.18713514 63.44576065 -30.2200126 66.9112659 -30.25 70.37695312 C-30.30191416 77.16808784 -30.32005127 83.95868514 -30.3125 90.75 C-30.6425 90.75 -30.9725 90.75 -31.3125 90.75 C-31.40522514 83.12656384 -31.47627754 75.50318623 -31.51974869 67.87931442 C-31.54061412 64.33909928 -31.56891126 60.79927026 -31.61425781 57.25927734 C-31.66607738 53.18843909 -31.68545369 49.11800573 -31.703125 45.046875 C-31.72377014 43.77696716 -31.74441528 42.50705933 -31.76568604 41.19866943 C-31.76598816 40.01774719 -31.76629028 38.83682495 -31.76660156 37.62011719 C-31.77548401 36.58087097 -31.78436646 35.54162476 -31.79351807 34.47088623 C-31.19246436 31.0710165 -29.83880855 30.00274178 -27.3125 27.75 C-27.3125 27.09 -27.3125 26.43 -27.3125 25.75 C-29.2925 27.4 -31.2725 29.05 -33.3125 30.75 C-33.9725 30.42 -34.6325 30.09 -35.3125 29.75 C-27.14901226 21.43595613 -18.78597095 13.81922649 -9.609375 6.64453125 C-7.26563054 4.78797435 -7.26563054 4.78797435 -5.22265625 2.55859375 C-3.3125 0.75 -3.3125 0.75 0 0 Z " fill="#A8BE84" transform="translate(79.3125,2.25)"/>
<path d="M0 0 C4.07170259 1.01792565 4.68334373 1.30622499 7.1875 4.3125 C7.69667969 4.90675781 8.20585938 5.50101563 8.73046875 6.11328125 C10.0611766 8.09091784 10.57327387 9.67100075 11 12 C10.34 12 9.68 12 9 12 C9 18.6 9 25.2 9 32 C8.01 32 7.02 32 6 32 C5.67 32.66 5.34 33.32 5 34 C2.53939655 30.97156498 0.12796222 27.90610488 -2.25 24.8125 C-2.77078125 24.13832031 -3.2915625 23.46414062 -3.828125 22.76953125 C-5 21 -5 21 -5 19 C-5.515625 18.7525 -6.03125 18.505 -6.5625 18.25 C-9.77184151 16.60418384 -12.87585664 14.8023904 -16 13 C-13.12120513 18.39774037 -9.7083355 23.19603029 -6.0703125 28.109375 C-4.10991205 30.84653789 -2.32417262 33.63216085 -0.5625 36.5 C4.4212075 44.43533382 10.06823723 51.69171692 17.36328125 57.609375 C21.39263113 61.03287991 24.55579474 64.25490792 25.875 69.4375 C25.91625 70.283125 25.9575 71.12875 26 72 C21.32930528 70.79896421 19.83614045 68.61592739 17.31640625 64.80078125 C15.2936267 62.03371486 12.6743044 60.11715765 10 58 C5.16129032 53.48387097 5.16129032 53.48387097 4 50 C3.175 49.21625 2.35 48.4325 1.5 47.625 C-1.09249105 44.9028844 -1.68622501 43.66070817 -2 40 C-3.485 39.505 -3.485 39.505 -5 39 C-11.2309458 31.61751232 -22 17.86788208 -22 8 C-13.06382979 7.70212766 -13.06382979 7.70212766 -10 10 C-9.38125 10.804375 -8.7625 11.60875 -8.125 12.4375 C-5.78257213 15.6124889 -5.78257213 15.6124889 0 18 C0 12.06 0 6.12 0 0 Z " fill="#A1B47F" transform="translate(25,50)"/>
<path d="M0 0 C0.33 0.99 0.66 1.98 1 3 C0.186521 3.55091309 -0.62695801 4.10182617 -1.46508789 4.66943359 C-5.08645259 8.32888598 -4.59240576 12.59496202 -4.61778259 17.48501587 C-4.59825027 18.74035126 -4.57871796 19.99568665 -4.55859375 21.2890625 C-4.55626236 22.58443939 -4.55393097 23.87981628 -4.55152893 25.21444702 C-4.5453769 27.94995584 -4.52274077 30.68464145 -4.48706055 33.41992188 C-4.44169869 36.9250174 -4.42702916 40.42937047 -4.42332363 43.93473244 C-4.41783084 47.2821176 -4.39445823 50.62925177 -4.37109375 53.9765625 C-4.3630497 55.86563828 -4.3630497 55.86563828 -4.35484314 57.7928772 C-4.33885574 58.95773651 -4.32286835 60.12259583 -4.30639648 61.32275391 C-4.29043678 62.86233261 -4.29043678 62.86233261 -4.27415466 64.43301392 C-4.17485155 67.23952574 -4.17485155 67.23952574 -2 70 C-9.79245552 68.77163263 -14.84599611 67.26887623 -19.890625 61.03515625 C-21 59 -21 59 -21 55 C-20.01 55 -19.02 55 -18 55 C-18.33 48.07 -18.66 41.14 -19 34 C-15.57701423 35.14099526 -14.85241234 36.00085621 -13 39 C-13 39.99 -13 40.98 -13 42 C-13.99 42 -14.98 42 -16 42 C-15.67 48.27 -15.34 54.54 -15 61 C-13.68 61.33 -12.36 61.66 -11 62 C-11.09539063 60.89140625 -11.19078125 59.7828125 -11.2890625 58.640625 C-11.4016391 57.17712917 -11.51358524 55.71358474 -11.625 54.25 C-11.72167969 53.15558594 -11.72167969 53.15558594 -11.8203125 52.0390625 C-12.10381649 48.14088264 -12.27081383 45.29354678 -10 42 C-9.34 42.33 -8.68 42.66 -8 43 C-8 34.75 -8 26.5 -8 18 C-11.96 18.495 -11.96 18.495 -16 19 C-17 18 -17 18 -17.5625 15.3125 C-16.90625385 11.44793933 -16.32725866 11.07923583 -13.3125 8.8125 C-10.27790569 6.75732502 -7.16583459 4.84673684 -4 3 C-2.65368175 2.01755155 -1.31558703 1.02323436 0 0 Z " fill="#5E8720" transform="translate(52,27)"/>
<path d="M0 0 C3.36051249 0.56907074 5.79679577 1.97648327 8.19140625 4.37109375 C8.52473958 6.70442708 8.85807292 9.03776042 9.19140625 11.37109375 C9.52140625 11.70109375 9.85140625 12.03109375 10.19140625 12.37109375 C10.29014441 14.36908947 10.32112424 16.37066533 10.31640625 18.37109375 C10.32027344 20.01078125 10.32027344 20.01078125 10.32421875 21.68359375 C10.19140625 24.37109375 10.19140625 24.37109375 9.19140625 25.37109375 C7.70268765 25.45778807 6.20996125 25.47812869 4.71875 25.46875 C3.81962891 25.46552734 2.92050781 25.46230469 1.99414062 25.45898438 C1.04861328 25.45060547 0.10308594 25.44222656 -0.87109375 25.43359375 C-1.82048828 25.42908203 -2.76988281 25.42457031 -3.74804688 25.41992188 C-6.1016244 25.40809485 -8.45507852 25.391614 -10.80859375 25.37109375 C-10.9252725 22.14223366 -10.99599921 18.9139193 -11.05859375 15.68359375 C-11.09210938 14.77158203 -11.125625 13.85957031 -11.16015625 12.91992188 C-11.22235772 8.643571 -11.18860643 6.05170074 -9.0703125 2.2578125 C-5.87337661 -0.40906148 -4.00098859 -0.21751668 0 0 Z " fill="#9DBF75" transform="translate(80.80859375,34.62890625)"/>
<path d="M0 0 C4.85714286 1.21428571 4.85714286 1.21428571 7 4 C7 4.99 7 5.98 7 7 C7.99 7 8.98 7 10 7 C9.67 8.65 9.34 10.3 9 12 C8.01 12.33 7.02 12.66 6 13 C6 20.92 6 28.84 6 37 C8.31 35.02 10.62 33.04 13 31 C13.66 31.33 14.32 31.66 15 32 C14.67 32.99 14.34 33.98 14 35 C14.08744008 37.5808926 14.22868495 40.11691478 14.4375 42.6875 C14.48970703 43.38939453 14.54191406 44.09128906 14.59570312 44.81445312 C14.72507865 46.54338054 14.86182531 48.27175355 15 50 C15.99 50.33 16.98 50.66 18 51 C17.01 53.475 17.01 53.475 16 56 C14.68 56 13.36 56 12 56 C12 51.05 12 46.1 12 41 C10.68 41.66 9.36 42.32 8 43 C6.86022758 46.50374486 6.83750934 50.02113062 6.8125 53.6875 C6.79832031 54.64011719 6.78414063 55.59273437 6.76953125 56.57421875 C6.75741803 59.18212282 6.75741803 59.18212282 9 61 C8.34 61.66 7.68 62.32 7 63 C5.68 63 4.36 63 3 63 C3 63.66 3 64.32 3 65 C2.01 64.67 1.02 64.34 0 64 C0 42.88 0 21.76 0 0 Z " fill="#619524" transform="translate(110,31)"/>
<path d="M0 0 C2.31 0 4.62 0 7 0 C7.671875 1.72265625 7.671875 1.72265625 8 4 C6.890625 6.18359375 6.890625 6.18359375 5.25 8.4375 C3.01366124 11.55860385 0.96736317 14.70251726 -1 18 C-2.16884371 19.78320255 -3.35646314 21.55423892 -4.5625 23.3125 C-5.16191406 24.19550781 -5.76132813 25.07851562 -6.37890625 25.98828125 C-6.91386719 26.65214844 -7.44882813 27.31601563 -8 28 C-8.66 28 -9.32 28 -10 28 C-10.185625 28.8353125 -10.185625 28.8353125 -10.375 29.6875 C-12.64625271 38.09113504 -17.6511088 42.82901793 -24.0703125 48.33984375 C-28.34754636 52.01965021 -30.93830598 54.77704181 -33 60 C-34.30915279 61.03145371 -35.64082143 62.03542166 -37 63 C-37.33 63.99 -37.66 64.98 -38 66 C-39.65 65.67 -41.3 65.34 -43 65 C-42.40503246 61.67258892 -41.29522827 59.82909592 -39.0625 57.3125 C-38.53785156 56.71050781 -38.01320313 56.10851562 -37.47265625 55.48828125 C-36 54 -36 54 -34 53 C-33.62875 52.29875 -33.2575 51.5975 -32.875 50.875 C-31.11385053 48.17457081 -29.70410353 46.81652662 -27.25 44.8125 C-22.51117022 40.79010532 -19.35499827 36.19460867 -16 31 C-15.23496223 29.84205973 -14.46930487 28.68452864 -13.703125 27.52734375 C-9.75702041 21.5227873 -6.00890217 15.54109168 -3 9 C-3.78375 9.825 -4.5675 10.65 -5.375 11.5 C-8 14 -8 14 -10 14 C-8.43977363 10.17035345 -6.12444429 7.67809511 -3 5 C-1.68 5 -0.36 5 1 5 C1 5.66 1 6.32 1 7 C3.0162233 6.28436734 3.0162233 6.28436734 5 5 C5.80528889 2.94999129 5.80528889 2.94999129 6 1 C4.02 1 2.04 1 0 1 C0 0.67 0 0.34 0 0 Z " fill="#A5B984" transform="translate(149,57)"/>
<path d="M0 0 C0.33 0 0.66 0 1 0 C1 20.13 1 40.26 1 61 C1.66 61.33 2.32 61.66 3 62 C3 61.34 3 60.68 3 60 C4.65 59.34 6.3 58.68 8 58 C7.34 57.34 6.68 56.68 6 56 C5.37126523 50.34138706 5.3071719 44.1163734 8 39 C10.078125 38.3515625 10.078125 38.3515625 12 38 C12.06058594 39.04800781 12.12117188 40.09601563 12.18359375 41.17578125 C12.26801738 42.55470048 12.35266447 43.93360605 12.4375 45.3125 C12.47681641 46.00279297 12.51613281 46.69308594 12.55664062 47.40429688 C12.74927415 50.47161535 13.02322717 53.06968152 14 56 C11.9961282 59.0058077 11.21478096 59.66592862 8.125 61.1875 C7.44695312 61.53167969 6.76890625 61.87585938 6.0703125 62.23046875 C4 63 4 63 0 63 C0 63.66 0 64.32 0 65 C-2.32686453 66.16343227 -3.84721413 66.19895988 -6.4375 66.25 C-7.61119141 66.28867188 -7.61119141 66.28867188 -8.80859375 66.328125 C-11.51738351 65.92253081 -12.3216094 65.11466951 -14 63 C-15.41634833 60.16730334 -15.3463005 57.52533562 -15.5625 54.375 C-15.64628906 53.18648437 -15.73007813 51.99796875 -15.81640625 50.7734375 C-15.87699219 49.85820313 -15.93757813 48.94296875 -16 48 C-16.66 48 -17.32 48 -18 48 C-18.66 49.32 -19.32 50.64 -20 52 C-20 49.03 -20 46.06 -20 43 C-18.68 43 -17.36 43 -16 43 C-16.66 41.35 -17.32 39.7 -18 38 C-14.10238506 39.29920498 -13.16083016 40.89666186 -11.07421875 44.32421875 C-8.94817155 49.62000905 -9.08720454 55.3554877 -9 61 C-6.64632287 61.6878236 -6.64632287 61.6878236 -4 62 C-3.01 61.34 -2.02 60.68 -1 60 C-0.5218788 57.37706711 -0.5218788 57.37706711 -0.56762695 54.26513672 C-0.54783279 53.06404266 -0.52803864 51.86294861 -0.50764465 50.62545776 C-0.49805977 48.67230148 -0.49805977 48.67230148 -0.48828125 46.6796875 C-0.47144088 45.3373143 -0.45329151 43.99495694 -0.43388367 42.65261841 C-0.38630693 39.11811266 -0.35654775 35.58367107 -0.33044434 32.0489502 C-0.30067711 28.44266075 -0.25413377 24.83659261 -0.20898438 21.23046875 C-0.12286444 14.15377233 -0.05555812 7.07700763 0 0 Z " fill="#8DAD64" transform="translate(110,34)"/>
<path d="M0 0 C3.63 0 7.26 0 11 0 C10.67 0.99 10.34 1.98 10 3 C9.92026524 4.33525717 9.89228662 5.67412083 9.90234375 7.01171875 C9.90717773 8.14770508 9.90717773 8.14770508 9.91210938 9.30664062 C9.92048828 10.09232422 9.92886719 10.87800781 9.9375 11.6875 C9.94201172 12.48478516 9.94652344 13.28207031 9.95117188 14.10351562 C9.9629415 16.06904257 9.98087652 18.03453085 10 20 C10.68449219 19.87367187 11.36898437 19.74734375 12.07421875 19.6171875 C16.57531544 20.20611604 18.72967842 22.96313172 21.8125 26.125 C22.40998047 26.69476563 23.00746094 27.26453125 23.62304688 27.8515625 C26.56119023 30.80649524 27.90724772 32.17740909 28.38671875 36.4296875 C28.25910156 37.27789062 28.13148437 38.12609375 28 39 C25.36 39 22.72 39 20 39 C20 46.26 20 53.52 20 61 C19.67 61 19.34 61 19 61 C19 53.08 19 45.16 19 37 C20.32 36.34 21.64 35.68 23 35 C23.80528889 32.94999129 23.80528889 32.94999129 24 31 C23.01 31 22.02 31 21 31 C19.9935725 29.33720673 18.99414593 27.67016516 18 26 C15.93299345 24.67206394 15.93299345 24.67206394 14 24 C14 24.99 14 25.98 14 27 C10.14876789 25.38998373 7.32856433 22.80787668 4.3125 20 C3.79010742 19.51813232 3.26771484 19.03626465 2.72949219 18.53979492 C-2.16260933 13.96482933 -6.63499578 9.08148219 -11 4 C-10.34 3.67 -9.68 3.34 -9 3 C-5.15494147 4.7089149 -1.57684957 6.79076938 2 9 C2 6.69 2 4.38 2 2 C1.34 2 0.68 2 0 2 C0 1.34 0 0.68 0 0 Z " fill="#93B061" transform="translate(96,7)"/>
<path d="M0 0 C4.07170259 1.01792565 4.68334373 1.30622499 7.1875 4.3125 C7.69667969 4.90675781 8.20585938 5.50101563 8.73046875 6.11328125 C10.0611766 8.09091784 10.57327387 9.67100075 11 12 C10.34 12 9.68 12 9 12 C9 18.6 9 25.2 9 32 C8.01 32 7.02 32 6 32 C5.67 32.66 5.34 33.32 5 34 C2.53939655 30.97156498 0.12796222 27.90610488 -2.25 24.8125 C-2.77078125 24.13832031 -3.2915625 23.46414062 -3.828125 22.76953125 C-5 21 -5 21 -5 19 C-6.32 18.34 -7.64 17.68 -9 17 C-9 16.01 -9 15.02 -9 14 C-5.89656201 15.20689255 -2.98806107 16.50596946 0 18 C0 12.06 0 6.12 0 0 Z " fill="#759835" transform="translate(25,50)"/>
<path d="M0 0 C0.33 0 0.66 0 1 0 C1.00808685 0.71774597 1.01617371 1.43549194 1.02450562 2.17498779 C1.10248791 8.94331511 1.18978964 15.71146517 1.28752708 22.47953415 C1.33744564 25.95897189 1.38377582 29.43837993 1.421875 32.91796875 C1.46584663 36.91946447 1.52547971 40.92059416 1.5859375 44.921875 C1.59748871 46.16990906 1.60903992 47.41794312 1.62094116 48.70379639 C1.64081085 49.86469788 1.66068054 51.02559937 1.68115234 52.22167969 C1.69447601 53.24316101 1.70779968 54.26464233 1.7215271 55.31707764 C2.00198982 58.01917079 2.6167239 59.68691598 4 62 C6.97065509 61.65772428 6.97065509 61.65772428 10 61 C11.43305968 58.13388063 11.15494451 55.50704328 11.25 52.3125 C11.68528048 45.88881528 12.25609684 42.43451817 17 38 C20.465 37.505 20.465 37.505 24 37 C24 41.95 24 46.9 24 52 C23.67 52 23.34 52 23 52 C22.67 49.36 22.34 46.72 22 44 C20.03243548 44.03122943 20.03243548 44.03122943 18 45 C15.7635757 50.34521269 15.6047991 55.45489978 15.34375 61.171875 C15 64 15 64 13 66 C8.70890339 66.64914428 4.9975031 66.46691634 1.0625 64.625 C-1 63 -1 63 -3 61 C-1.35 61 0.3 61 2 61 C1.34 60.34 0.68 59.68 0 59 C-0.24050903 56.5196228 -0.24050903 56.5196228 -0.22705078 53.35693359 C-0.22689972 52.17586029 -0.22674866 50.99478699 -0.22659302 49.77792358 C-0.21627045 48.49769318 -0.20594788 47.21746277 -0.1953125 45.8984375 C-0.1924826 44.59170074 -0.18965271 43.28496399 -0.18673706 41.93862915 C-0.17909776 38.46317919 -0.1594469 34.98789617 -0.1373291 31.51251221 C-0.11687696 27.96669778 -0.10773671 24.4208564 -0.09765625 20.875 C-0.07620116 13.91659805 -0.04206173 6.95830704 0 0 Z " fill="#86A55C" transform="translate(47,35)"/>
<path d="M0 0 C4.85714286 1.21428571 4.85714286 1.21428571 7 4 C7 4.99 7 5.98 7 7 C7.99 7 8.98 7 10 7 C9.67 8.65 9.34 10.3 9 12 C7.35 12.33 5.7 12.66 4 13 C4 20.92 4 28.84 4 37 C3.34 37 2.68 37 2 37 C2 45.25 2 53.5 2 62 C1.67 62 1.34 62 1 62 C0.67 41.54 0.34 21.08 0 0 Z " fill="#51850C" transform="translate(110,31)"/>
<path d="M0 0 C-1.444254 4.61311719 -4.09880569 7.63542832 -7.375 11.0625 C-8.09816406 11.8369043 -8.09816406 11.8369043 -8.8359375 12.62695312 C-10.94141585 14.87260598 -13.07480439 17.07225134 -15.2890625 19.2109375 C-17.16686836 20.94697592 -17.16686836 20.94697592 -18 23.5625 C-19.18015136 26.43911894 -20.5121067 27.23439831 -23 29 C-23.33 29.99 -23.66 30.98 -24 32 C-25.65 31.67 -27.3 31.34 -29 31 C-28.40503246 27.67258892 -27.29522827 25.82909592 -25.0625 23.3125 C-24.53785156 22.71050781 -24.01320313 22.10851562 -23.47265625 21.48828125 C-22 20 -22 20 -20 19 C-19.62875 18.29875 -19.2575 17.5975 -18.875 16.875 C-16.6531458 13.4681569 -14.02326795 11.30767855 -10.9296875 8.70703125 C-8.64397256 6.68505265 -6.86022423 4.41140178 -5 2 C-2 0 -2 0 0 0 Z " fill="#77913C" transform="translate(135,91)"/>
<path d="M0 0 C1.32 0 2.64 0 4 0 C4.84982393 4.3010173 5.08623652 8.18788044 4.8125 12.5625 C4.72935547 14.20412109 4.72935547 14.20412109 4.64453125 15.87890625 C3.88057878 19.57828821 2.68095541 21.36805658 0 24 C-0.99 24 -1.98 24 -3 24 C-3.55353075 7.1070615 -3.55353075 7.1070615 0 0 Z " fill="#E0E9D3" transform="translate(128,57)"/>
<path d="M0 0 C1.32 0 2.64 0 4 0 C6 3 6 3 6 6 C4.68 6 3.36 6 2 6 C2.04640625 7.27875 2.0928125 8.5575 2.140625 9.875 C2.17817027 11.58330979 2.21456745 13.29164508 2.25 15 C2.28351563 15.83917969 2.31703125 16.67835937 2.3515625 17.54296875 C2.44844251 23.79172971 1.16893002 27.61032375 -2 33 C-3.33332095 30.3333581 -2.67102033 28.83319697 -2 26 C-2.33 26 -2.66 26 -3 26 C-3.27552103 17.50476837 -2.76995484 9.33299908 -1 1 C-0.67 0.67 -0.34 0.34 0 0 Z " fill="#8DAC6B" transform="translate(88,71)"/>
<path d="M0 0 C0.33 0 0.66 0 1 0 C1.00808685 0.71774597 1.01617371 1.43549194 1.02450562 2.17498779 C1.10248791 8.94331511 1.18978964 15.71146517 1.28752708 22.47953415 C1.33744564 25.95897189 1.38377582 29.43837993 1.421875 32.91796875 C1.46584663 36.91946447 1.52547971 40.92059416 1.5859375 44.921875 C1.59748871 46.16990906 1.60903992 47.41794312 1.62094116 48.70379639 C1.64081085 49.86469788 1.66068054 51.02559937 1.68115234 52.22167969 C1.69447601 53.24316101 1.70779968 54.26464233 1.7215271 55.31707764 C2.00198982 58.01917079 2.6167239 59.68691598 4 62 C8.47883696 61.55296014 8.47883696 61.55296014 12 59 C12 59.99 12 60.98 12 62 C12.99 62 13.98 62 15 62 C14.34 63.32 13.68 64.64 13 66 C3.51578947 66.55789474 3.51578947 66.55789474 -1 63 C-1.66 62.34 -2.32 61.68 -3 61 C-1.35 61 0.3 61 2 61 C1.34 60.34 0.68 59.68 0 59 C-0.24050903 56.5196228 -0.24050903 56.5196228 -0.22705078 53.35693359 C-0.22689972 52.17586029 -0.22674866 50.99478699 -0.22659302 49.77792358 C-0.21627045 48.49769318 -0.20594788 47.21746277 -0.1953125 45.8984375 C-0.1924826 44.59170074 -0.18965271 43.28496399 -0.18673706 41.93862915 C-0.17909776 38.46317919 -0.1594469 34.98789617 -0.1373291 31.51251221 C-0.11687696 27.96669778 -0.10773671 24.4208564 -0.09765625 20.875 C-0.07620116 13.91659805 -0.04206173 6.95830704 0 0 Z " fill="#799E46" transform="translate(47,35)"/>
<path d="M0 0 C0.33 0 0.66 0 1 0 C1.08040527 0.66531738 1.16081055 1.33063477 1.24365234 2.01611328 C1.61436773 5.05322948 1.99459591 8.08908275 2.375 11.125 C2.50132813 12.17171875 2.62765625 13.2184375 2.7578125 14.296875 C3.50425562 20.19377564 4.31291161 25.62582323 7 31 C8.32 30.67 9.64 30.34 11 30 C10.505 32.475 10.505 32.475 10 35 C9.01 35 8.02 35 7 35 C7 34.34 7 33.68 7 33 C6.01 33 5.02 33 4 33 C3.67 33.66 3.34 34.32 3 35 C-2.13988228 26.82291456 -2.31889402 16.40737353 -2 7 C-1.67 7 -1.34 7 -1 7 C-0.67 4.69 -0.34 2.38 0 0 Z " fill="#8FAB6C" transform="translate(71,72)"/>
<path d="M0 0 C0.433125 0.495 0.86625 0.99 1.3125 1.5 C2.99740483 3.33218192 2.99740483 3.33218192 6 3 C5.835 4.093125 5.67 5.18625 5.5 6.3125 C4.86086846 11.49039177 4.48345615 16.79954161 5 22 C5.66 22.66 6.32 23.32 7 24 C6.34 24.66 5.68 25.32 5 26 C3.68 26 2.36 26 1 26 C1 26.66 1 27.32 1 28 C0.01 27.67 -0.98 27.34 -2 27 C-1.67 26.34 -1.34 25.68 -1 25 C-0.84655791 23.11527141 -0.75040429 21.22572126 -0.68359375 19.3359375 C-0.62075195 17.65371094 -0.62075195 17.65371094 -0.55664062 15.9375 C-0.51732422 14.761875 -0.47800781 13.58625 -0.4375 12.375 C-0.39431641 11.19164063 -0.35113281 10.00828125 -0.30664062 8.7890625 C-0.20032574 5.85949672 -0.09829358 2.92984412 0 0 Z " fill="#3E8308" transform="translate(112,68)"/>
<path d="M0 0 C3.5 0.125 3.5 0.125 4.5 1.125 C4.57244053 3.14464199 4.58377188 5.16667124 4.5625 7.1875 C4.55347656 8.29222656 4.54445313 9.39695312 4.53515625 10.53515625 C4.52355469 11.38980469 4.51195313 12.24445312 4.5 13.125 C1.53 13.125 -1.44 13.125 -4.5 13.125 C-4.52686553 11.14590602 -4.54633375 9.16671029 -4.5625 7.1875 C-4.57410156 6.08535156 -4.58570312 4.98320313 -4.59765625 3.84765625 C-4.45113287 -0.23741548 -4.2094359 0.150337 0 0 Z " fill="#438711" transform="translate(84.5,45.875)"/>
<path d="M0 0 C0.33 0 0.66 0 1 0 C1.01981934 0.74161377 1.03963867 1.48322754 1.06005859 2.24731445 C1.15522928 5.60273834 1.26494094 8.95753286 1.375 12.3125 C1.4059375 13.47974609 1.436875 14.64699219 1.46875 15.84960938 C1.50742187 16.96787109 1.54609375 18.08613281 1.5859375 19.23828125 C1.6173584 20.26993408 1.6487793 21.30158691 1.68115234 22.36450195 C1.82674629 25.22843236 1.82674629 25.22843236 4 28 C-3.50769231 26.52307692 -3.50769231 26.52307692 -6 23.875 C-6.33 23.25625 -6.66 22.6375 -7 22 C-5.68 22 -4.36 22 -3 22 C-3.33 16.39 -3.66 10.78 -4 5 C-3.01 4.67 -2.02 4.34 -1 4 C-0.26676204 1.98491642 -0.26676204 1.98491642 0 0 Z " fill="#44810A" transform="translate(46,69)"/>
<path d="M0 0 C0.99 0 1.98 0 3 0 C3 1.32 3 2.64 3 4 C3.66 4 4.32 4 5 4 C6.25433458 7.76300374 6.10695422 11.27210909 6.0625 15.1875 C6.05798828 15.93708984 6.05347656 16.68667969 6.04882812 17.45898438 C6.03706354 19.30602383 6.01912865 21.15302213 6 23 C3.74187047 22.09674819 2.2746178 21.34888551 0.7578125 19.421875 C-0.40246533 15.71377061 -0.20817883 12.10821791 -0.125 8.25 C-0.11597656 7.45722656 -0.10695313 6.66445312 -0.09765625 5.84765625 C-0.07417012 3.89830719 -0.03830137 1.94911425 0 0 Z " fill="#E9EFE0" transform="translate(27,58)"/>
<path d="M0 0 C1.9375 0.9375 1.9375 0.9375 4 3 C5.57153384 10.85766918 5.09468377 19.01500238 5 27 C3.35 26.67 1.7 26.34 0 26 C0 19.73 0 13.46 0 7 C0.99 7 1.98 7 3 7 C2.505 6.21625 2.01 5.4325 1.5 4.625 C0 2 0 2 0 0 Z " fill="#84AA50" transform="translate(36,62)"/>
<path d="M0 0 C1.65 0 3.3 0 5 0 C5 5.94 5 11.88 5 18 C0.81269198 16.953173 -0.29986005 16.1823078 -3 13 C-3 12.34 -3 11.68 -3 11 C-2.01 11 -1.02 11 0 11 C0 7.37 0 3.74 0 0 Z " fill="#639412" transform="translate(99,8)"/>
<path d="M0 0 C3.42298577 1.14099526 4.14758766 2.00085621 6 5 C6 5.99 6 6.98 6 8 C5.01 8 4.02 8 3 8 C3.03029297 8.55985596 3.06058594 9.11971191 3.09179688 9.6965332 C3.22869184 12.23514498 3.36435938 14.77382091 3.5 17.3125 C3.54769531 18.19357422 3.59539063 19.07464844 3.64453125 19.98242188 C3.68964844 20.82998047 3.73476563 21.67753906 3.78125 22.55078125 C3.82314453 23.33106689 3.86503906 24.11135254 3.90820312 24.9152832 C3.98277524 26.60882396 4 28.30481821 4 30 C-0.6875 26.484375 -0.6875 26.484375 -2 25 C-2 23.68 -2 22.36 -2 21 C-1.01 21 -0.02 21 1 21 C0.67 14.07 0.34 7.14 0 0 Z " fill="#4D8311" transform="translate(33,61)"/>
<path d="M0 0 C2.31 0 4.62 0 7 0 C7.671875 1.72265625 7.671875 1.72265625 8 4 C6.890625 6.18359375 6.890625 6.18359375 5.25 8.4375 C4.693125 9.21996094 4.13625 10.00242187 3.5625 10.80859375 C3.046875 11.53175781 2.53125 12.25492188 2 13 C1.4225 13.99 0.845 14.98 0.25 16 C-1 18 -1 18 -3 19 C-2.505 18.1028125 -2.505 18.1028125 -2 17.1875 C-0.79212012 14.94613529 -0.79212012 14.94613529 -1 12 C-1.99 12.66 -2.98 13.32 -4 14 C-3.67 12.35 -3.34 10.7 -3 9 C-3.78375 9.825 -4.5675 10.65 -5.375 11.5 C-8 14 -8 14 -10 14 C-8.43977363 10.17035345 -6.12444429 7.67809511 -3 5 C-1.68 5 -0.36 5 1 5 C1 5.66 1 6.32 1 7 C3.0162233 6.28436734 3.0162233 6.28436734 5 5 C5.80528889 2.94999129 5.80528889 2.94999129 6 1 C4.02 1 2.04 1 0 1 C0 0.67 0 0.34 0 0 Z " fill="#BFCEAA" transform="translate(149,57)"/>
<path d="M0 0 C-0.33 1.65 -0.66 3.3 -1 5 C-2.32 5.33 -3.64 5.66 -5 6 C-5 5.34 -5 4.68 -5 4 C-6.1446875 4.4640625 -6.1446875 4.4640625 -7.3125 4.9375 C-9.18789677 5.67893593 -11.08684652 6.36228217 -13 7 C-14.71226052 9.8201938 -15.8059395 12.92955871 -17 16 C-17.33 15.34 -17.66 14.68 -18 14 C-17.67 13.01 -17.34 12.02 -17 11 C-17.99 10.67 -18.98 10.34 -20 10 C-19.01 10 -18.02 10 -17 10 C-16.773125 9.2575 -16.54625 8.515 -16.3125 7.75 C-12.77440121 0.33684063 -7.27676241 -0.11736714 0 0 Z " fill="#9BB271" transform="translate(155,58)"/>
<path d="M0 0 C1.32 0.33 2.64 0.66 4 1 C4 6.61 4 12.22 4 18 C3.67 18 3.34 18 3 18 C3 12.72 3 7.44 3 2 C1.02 2.99 1.02 2.99 -1 4 C-1.33 4.99 -1.66 5.98 -2 7 C-1.01 7.33 -0.02 7.66 1 8 C-0.32 8 -1.64 8 -3 8 C-3.144375 8.5775 -3.28875 9.155 -3.4375 9.75 C-3.78394091 11.13576363 -4.14096661 12.51899218 -4.51538086 13.89746094 C-5.29998839 17.30151134 -5.37507804 20.77194009 -5.5625 24.25 C-5.60568359 24.99507812 -5.64886719 25.74015625 -5.69335938 26.5078125 C-5.79896725 28.338349 -5.89994201 30.16915176 -6 32 C-6.33 32 -6.66 32 -7 32 C-7.16742302 29.37504621 -7.3339717 26.75004205 -7.5 24.125 C-7.54769531 23.37863281 -7.59539062 22.63226563 -7.64453125 21.86328125 C-8 16.2265625 -8 16.2265625 -8 14 C-8.99 14.495 -8.99 14.495 -10 15 C-8.59601721 10.89889238 -6.62912962 8.01910841 -3.875 4.6875 C-3.15054688 3.80449219 -2.42609375 2.92148437 -1.6796875 2.01171875 C-1.12539062 1.34785156 -0.57109375 0.68398438 0 0 Z " fill="#8BA95B" transform="translate(131,49)"/>
<path d="M0 0 C0.33 0.66 0.66 1.32 1 2 C0.195625 2.763125 -0.60875 3.52625 -1.4375 4.3125 C-4.16799024 6.79430898 -4.16799024 6.79430898 -5 10 C-1.535 9.505 -1.535 9.505 2 9 C2 18.9 2 28.8 2 39 C0.68 38.67 -0.64 38.34 -2 38 C-1.67 37.34 -1.34 36.68 -1 36 C-0.34 36.33 0.32 36.66 1 37 C1 28.75 1 20.5 1 12 C-1.64 12.33 -4.28 12.66 -7 13 C-8 12 -8 12 -8.5625 9.3125 C-7.89021788 5.3535053 -7.12018235 4.94174915 -4 2.625 C-2.67942518 1.7308608 -1.34967692 0.84957342 0 0 Z " fill="#93B160" transform="translate(43,33)"/>
<path d="M0 0 C3.83736322 0.95934081 4.59660228 1.23609263 7 4 C6.67 4.66 6.34 5.32 6 6 C4.68 5.67 3.36 5.34 2 5 C2 23.81 2 42.62 2 62 C1.67 62 1.34 62 1 62 C0.67 41.54 0.34 21.08 0 0 Z " fill="#639529" transform="translate(110,31)"/>
<path d="M0 0 C4.73373189 0.44483651 6.63392043 2.18975297 9.75 5.6875 C10.52859375 6.53699219 11.3071875 7.38648437 12.109375 8.26171875 C14.18750018 11.27156535 14.68300381 13.39152671 15 17 C10.10996786 15.60408657 8.1813612 13.1201728 5.25 9.0625 C4.47140625 8.00160156 3.6928125 6.94070312 2.890625 5.84765625 C1 3 1 3 0 0 Z " fill="#A5B982" transform="translate(36,105)"/>
<path d="M0 0 C0.33 0 0.66 0 1 0 C3.22653935 16.79585117 3.22653935 16.79585117 -2 24 C-4.14453125 24.76171875 -4.14453125 24.76171875 -6 25 C-6.64799234 19.03847043 -5.00290245 15.71951355 -2.1796875 10.51171875 C-0.51029646 6.95735306 -0.21652936 3.89752846 0 0 Z " fill="#7FA452" transform="translate(75,108)"/>
<path d="M0 0 C0.66 0.33 1.32 0.66 2 1 C1.34 1.66 0.68 2.32 0 3 C-0.1546875 4.918125 -0.1546875 4.918125 -0.3125 6.875 C-0.6463409 10.35828339 -0.76795635 10.78535962 -3.5 13.3125 C-4.7375 14.1478125 -4.7375 14.1478125 -6 15 C-6.33 15.99 -6.66 16.98 -7 18 C-8.65 17.67 -10.3 17.34 -12 17 C-11.40503246 13.67258892 -10.29522827 11.82909592 -8.0625 9.3125 C-7.53785156 8.71050781 -7.01320313 8.10851562 -6.47265625 7.48828125 C-5 6 -5 6 -3 5 C-1.9590934 3.35857037 -0.95495674 1.69287785 0 0 Z " fill="#95AD6B" transform="translate(118,105)"/>
<path d="M0 0 C3.91059441 1.30353147 4.89598583 2.95134801 6.9921875 6.390625 C8.93036902 11.40886242 8.36268158 16.71290854 8 22 C7.67 22 7.34 22 7 22 C7 18.04 7 14.08 7 10 C6.34 10 5.68 10 5 10 C4.67 9.67 4.34 9.34 4 9 C4 13.62 4 18.24 4 23 C3.67 23 3.34 23 3 23 C2.67 18.71 2.34 14.42 2 10 C1.34 10 0.68 10 0 10 C-0.66 11.32 -1.32 12.64 -2 14 C-2 11.03 -2 8.06 -2 5 C-0.68 5 0.64 5 2 5 C1.34 3.35 0.68 1.7 0 0 Z " fill="#97B272" transform="translate(92,72)"/>
<path d="M0 0 C1.98 0 3.96 0 6 0 C6 3.96 6 7.92 6 12 C4.02 12 2.04 12 0 12 C0 8.04 0 4.08 0 0 Z " fill="#3A8310" transform="translate(71,47)"/>
<path d="M0 0 C0.99 0.495 0.99 0.495 2 1 C2 1.66 2 2.32 2 3 C2.66 3 3.32 3 4 3 C4.06058594 3.83144531 4.12117188 4.66289063 4.18359375 5.51953125 C4.26738281 6.60621094 4.35117188 7.69289063 4.4375 8.8125 C4.55931641 10.43091797 4.55931641 10.43091797 4.68359375 12.08203125 C4.90212461 15.05989905 4.90212461 15.05989905 6 18 C7.65 18.33 9.3 18.66 11 19 C11 19.33 11 19.66 11 20 C8.03 20 5.06 20 2 20 C0.88176185 17.76352369 0.80603939 16.35108471 0.68359375 13.8671875 C0.62075195 12.65869141 0.62075195 12.65869141 0.55664062 11.42578125 C0.51732422 10.58402344 0.47800781 9.74226563 0.4375 8.875 C0.39431641 8.02550781 0.35113281 7.17601563 0.30664062 6.30078125 C0.20045764 4.20071777 0.09971503 2.10038052 0 0 Z " fill="#578527" transform="translate(95,79)"/>
<path d="M0 0 C0.99 0 1.98 0 3 0 C3 5.28 3 10.56 3 16 C1.68 16 0.36 16 -1 16 C-1.02685095 13.52076199 -1.04676547 11.0418116 -1.0625 8.5625 C-1.07506836 7.50192383 -1.07506836 7.50192383 -1.08789062 6.41992188 C-1.09653588 4.61306441 -1.05220011 2.80612397 -1 1 C-0.67 0.67 -0.34 0.34 0 0 Z " fill="#DBE7CF" transform="translate(118,73)"/>
<path d="M0 0 C1.32 0.33 2.64 0.66 4 1 C4.33 2.32 4.66 3.64 5 5 C3.68 5 2.36 5 1 5 C1.01160156 5.73605469 1.02320312 6.47210938 1.03515625 7.23046875 C1.04417969 8.20628906 1.05320312 9.18210937 1.0625 10.1875 C1.07410156 11.15042969 1.08570312 12.11335938 1.09765625 13.10546875 C1.00486622 15.85576513 0.62111685 18.32479591 0 21 C-0.66 21 -1.32 21 -2 21 C-2.22424141 13.63740707 -1.90120099 7.12950371 0 0 Z " fill="#4E7B19" transform="translate(89,72)"/>
<path d="M0 0 C0.33 0.99 0.66 1.98 1 3 C1.556875 2.649375 2.11375 2.29875 2.6875 1.9375 C5.64625953 0.7380029 6.97688902 1.04145262 10 2 C13.62187705 3.81093853 15.78093959 5.61301306 18 9 C15.71480423 7.89972055 13.70054552 6.78722971 11.625 5.3125 C8.2125345 3.60626725 6.60318254 3.85004812 3 5 C0.77022004 6.97901574 0.77022004 6.97901574 -1 9 C-1.66 9 -2.32 9 -3 9 C-3.66 10.32 -4.32 11.64 -5 13 C-5.66 12.67 -6.32 12.34 -7 12 C-6.21625 11.236875 -5.4325 10.47375 -4.625 9.6875 C-1.92742283 7.09108195 -1.92742283 7.09108195 0 4 C-0.99 3.67 -1.98 3.34 -3 3 C-2.01 2.01 -1.02 1.02 0 0 Z " fill="#C2D2A8" transform="translate(72,7)"/>
<path d="M0 0 C0.33 0.99 0.66 1.98 1 3 C1.99 3 2.98 3 4 3 C3.34 4.32 2.68 5.64 2 7 C-7.48421053 7.55789474 -7.48421053 7.55789474 -12 4 C-12.66 3.34 -13.32 2.68 -14 2 C-9.71 2 -5.42 2 -1 2 C-0.67 1.34 -0.34 0.68 0 0 Z " fill="#84A259" transform="translate(58,94)"/>
<path d="M0 0 C0.66 0.33 1.32 0.66 2 1 C1.67 1.99 1.34 2.98 1 4 C1.08744008 6.5808926 1.22868495 9.11691478 1.4375 11.6875 C1.48970703 12.38939453 1.54191406 13.09128906 1.59570312 13.81445312 C1.72507865 15.54338054 1.86182531 17.27175355 2 19 C2.99 19.33 3.98 19.66 5 20 C4.1875 22.4375 4.1875 22.4375 3 25 C2.01 25.33 1.02 25.66 0 26 C-0.33 19.73 -0.66 13.46 -1 7 C-1.66 7 -2.32 7 -3 7 C-1.125 1.125 -1.125 1.125 0 0 Z " fill="#487E0E" transform="translate(123,62)"/>
<path d="M0 0 C2.74493045 1.37246523 3.24935459 3.03088803 4.625 5.75 C5.07101563 6.61109375 5.51703125 7.4721875 5.9765625 8.359375 C7.04637762 11.11966134 7.20027848 13.06960963 7 16 C5.1875 15.9375 5.1875 15.9375 3 15 C0.03535091 9.81186409 -0.31111883 5.91125786 0 0 Z " fill="#76984C" transform="translate(83,116)"/>
<path d="M0 0 C0.99 0.33 1.98 0.66 3 1 C4.04976964 4.14930893 4.10131595 6.38814456 4.0625 9.6875 C4.05347656 10.68136719 4.04445313 11.67523438 4.03515625 12.69921875 C4.02355469 13.45847656 4.01195312 14.21773437 4 15 C3.01 15 2.02 15 1 15 C-0.44207941 12.11584117 -0.09394887 9.58278472 -0.0625 6.375 C-0.05347656 5.18648438 -0.04445312 3.99796875 -0.03515625 2.7734375 C-0.02355469 1.85820313 -0.01195312 0.94296875 0 0 Z " fill="#EDF3E5" transform="translate(37,74)"/>
<path d="M0 0 C0.125 2.375 0.125 2.375 0 5 C-0.66 5.66 -1.32 6.32 -2 7 C-2.268125 7.825 -2.53625 8.65 -2.8125 9.5 C-4 12 -4 12 -6.625 13.3125 C-7.40875 13.539375 -8.1925 13.76625 -9 14 C-8.41602945 9.91220616 -5.31152518 0 0 0 Z " fill="#A4B885" transform="translate(149,67)"/>
<path d="M0 0 C3.61938095 2.64116988 5.98706523 4.97413046 8 9 C8 9.66 8 10.32 8 11 C7.34 11 6.68 11 6 11 C5.01 12.485 5.01 12.485 4 14 C4 13.01 4 12.02 4 11 C3.34 11 2.68 11 2 11 C2 9.68 2 8.36 2 7 C1.01 7 0.02 7 -1 7 C-1 6.34 -1 5.68 -1 5 C-0.34 5 0.32 5 1 5 C0.67 3.35 0.34 1.7 0 0 Z " fill="#90AC5C" transform="translate(28,51)"/>
<path d="M0 0 C0.721875 0.12375 1.44375 0.2475 2.1875 0.375 C1.5275 1.695 0.8675 3.015 0.1875 4.375 C-0.4725 4.375 -1.1325 4.375 -1.8125 4.375 C-2.080625 4.99375 -2.34875 5.6125 -2.625 6.25 C-3.8125 8.375 -3.8125 8.375 -6.8125 10.375 C-7.8025 10.375 -8.7925 10.375 -9.8125 10.375 C-7.87309388 5.79094916 -5.21406429 0.69520857 0 0 Z " fill="#84A453" transform="translate(69.8125,10.625)"/>
<path d="M0 0 C0.33 0 0.66 0 1 0 C1 5.94 1 11.88 1 18 C-3.77379752 16.80655062 -5.38574709 15.20354235 -9 12 C-5.48283697 12 -4.62878252 12.82445585 -2 15 C-1.93941406 14.08476563 -1.87882812 13.16953125 -1.81640625 12.2265625 C-1.69072266 10.44378906 -1.69072266 10.44378906 -1.5625 8.625 C-1.48128906 7.44164062 -1.40007813 6.25828125 -1.31640625 5.0390625 C-1 2 -1 2 0 0 Z " fill="#D2DEBF" transform="translate(24,50)"/>
<path d="M0 0 C3.875 1.875 3.875 1.875 5 3 C5.33333333 5.33333333 5.66666667 7.66666667 6 10 C6.33 10.33 6.66 10.66 7 11 C7.07244053 13.01964199 7.08377188 15.04167124 7.0625 17.0625 C7.05347656 18.16722656 7.04445313 19.27195312 7.03515625 20.41015625 C7.02355469 21.26480469 7.01195313 22.11945312 7 23 C6.67 23 6.34 23 6 23 C5.93941406 22.21753906 5.87882812 21.43507813 5.81640625 20.62890625 C5.73261719 19.61699219 5.64882812 18.60507812 5.5625 17.5625 C5.48128906 16.55316406 5.40007812 15.54382813 5.31640625 14.50390625 C5.26788532 12.06359221 5.26788532 12.06359221 4 11 C2.14712498 10.92773498 0.29166122 10.9161878 -1.5625 10.9375 C-2.57441406 10.94652344 -3.58632812 10.95554687 -4.62890625 10.96484375 C-5.41136719 10.97644531 -6.19382812 10.98804688 -7 11 C-7 10.01 -7 9.02 -7 8 C-3.37 8.33 0.26 8.66 4 9 C2.94124926 5.59687262 1.99097846 2.98646769 0 0 Z " fill="#BFD4A4" transform="translate(84,36)"/>
<path d="M0 0 C0.33 0.66 0.66 1.32 1 2 C0.67 2.99 0.34 3.98 0 5 C1.98 5 3.96 5 6 5 C6 5.99 6 6.98 6 8 C4.02 8 2.04 8 0 8 C0 11.96 0 15.92 0 20 C1.98 20 3.96 20 6 20 C6 20.33 6 20.66 6 21 C3.69 21 1.38 21 -1 21 C-1.02888146 17.68751813 -1.04675799 14.37506833 -1.0625 11.0625 C-1.07087891 10.11697266 -1.07925781 9.17144531 -1.08789062 8.19726562 C-1.09111328 7.29814453 -1.09433594 6.39902344 -1.09765625 5.47265625 C-1.10289307 4.64000244 -1.10812988 3.80734863 -1.11352539 2.94946289 C-1 1 -1 1 0 0 Z " fill="#A4BF8E" transform="translate(71,39)"/>
<path d="M0 0 C0.66 0 1.32 0 2 0 C2.33 2.31 2.66 4.62 3 7 C4.32 7 5.64 7 7 7 C7 8.65 7 10.3 7 12 C5.68 11.67 4.36 11.34 3 11 C2.34 12.32 1.68 13.64 1 15 C0.67 10.05 0.34 5.1 0 0 Z " fill="#4B8211" transform="translate(75,105)"/>
<path d="M0 0 C3.42298577 1.14099526 4.14758766 2.00085621 6 5 C6 5.99 6 6.98 6 8 C5.01 8 4.02 8 3 8 C3 9.98 3 11.96 3 14 C2.34 13.67 1.68 13.34 1 13 C0.5859375 10.05859375 0.5859375 10.05859375 0.375 6.4375 C0.30023438 5.23996094 0.22546875 4.04242188 0.1484375 2.80859375 C0.09945312 1.88175781 0.05046875 0.95492187 0 0 Z " fill="#518612" transform="translate(33,61)"/>
<path d="M0 0 C9.00958466 -0.30031949 9.00958466 -0.30031949 12 2 C13.3125 4 13.3125 4 14 6 C13.67 6.66 13.34 7.32 13 8 C10.04590299 6.62845496 7.55991624 5.01136276 5 3 C5.66 3 6.32 3 7 3 C7 2.34 7 1.68 7 1 C5.35 1 3.7 1 2 1 C1.67 1.99 1.34 2.98 1 4 C0.67 2.68 0.34 1.36 0 0 Z " fill="#A6B883" transform="translate(3,58)"/>
<path d="M0 0 C2.76276177 0.52268466 5.3260876 1.10869587 8 2 C7.67 3.65 7.34 5.3 7 7 C5.35 7.33 3.7 7.66 2 8 C0.23537317 4.91190305 0 3.76687864 0 0 Z " fill="#5C990B" transform="translate(112,36)"/>
<path d="M0 0 C3.08089673 2.77280706 4.68775452 5.06326356 6 9 C5.34 8.67 4.68 8.34 4 8 C4.33 9.65 4.66 11.3 5 13 C1.74475735 9.97727468 -0.61820737 6.74281699 -3 3 C-2.67 2.34 -2.34 1.68 -2 1 C-1.34 1.33 -0.68 1.66 0 2 C0 1.34 0 0.68 0 0 Z " fill="#AEBE8C" transform="translate(12,70)"/>
<path d="M0 0 C0 0.99 0 1.98 0 3 C-0.66 3 -1.32 3 -2 3 C-2.12375 3.804375 -2.2475 4.60875 -2.375 5.4375 C-2.58125 6.283125 -2.7875 7.12875 -3 8 C-3.99 8.495 -3.99 8.495 -5 9 C-4.67 7.35 -4.34 5.7 -4 4 C-5.175625 5.2375 -5.175625 5.2375 -6.375 6.5 C-9 9 -9 9 -11 9 C-8.823805 3.65843044 -5.92169235 0 0 0 Z " fill="#C3D3A8" transform="translate(150,62)"/>
<path d="M0 0 C2 2 2 2 2.1953125 4.6015625 C2.17210937 5.59929687 2.14890625 6.59703125 2.125 7.625 C2.10695313 8.62789062 2.08890625 9.63078125 2.0703125 10.6640625 C2.03550781 11.82035156 2.03550781 11.82035156 2 13 C1.01 13.495 1.01 13.495 0 14 C0.33 14.66 0.66 15.32 1 16 C-0.65 15.67 -2.3 15.34 -4 15 C-3.67 13.68 -3.34 12.36 -3 11 C-2.01 11 -1.02 11 0 11 C0 7.37 0 3.74 0 0 Z " fill="#8CAE61" transform="translate(41,78)"/>
<path d="M0 0 C0.33 0 0.66 0 1 0 C0.67 5.94 0.34 11.88 0 18 C-0.99 18 -1.98 18 -3 18 C-2.88602456 15.56152549 -2.75929026 13.12486826 -2.625 10.6875 C-2.5940625 9.99720703 -2.563125 9.30691406 -2.53125 8.59570312 C-2.31875081 4.93009211 -2.08066139 3.12099208 0 0 Z " fill="#548026" transform="translate(62,79)"/>
<path d="M0 0 C2.8992226 0.46761655 3.86675182 0.86675182 6 3 C6 4.32 6 5.64 6 7 C4.00045254 7.04254356 1.99958364 7.04080783 0 7 C-1 6 -1 6 -1.125 3.5 C-1 1 -1 1 0 0 Z " fill="#51851D" transform="translate(82,37)"/>
<path d="M0 0 C1.32 0 2.64 0 4 0 C4 4.95 4 9.9 4 15 C3.67 15 3.34 15 3 15 C2.67 11.7 2.34 8.4 2 5 C0.35 4.67 -1.3 4.34 -3 4 C-1.75 2 -1.75 2 0 0 Z " fill="#547C1B" transform="translate(67,72)"/>
<path d="M0 0 C-1.375 1.5 -1.375 1.5 -3 3 C-3.66 3 -4.32 3 -5 3 C-6.52299523 5.93720508 -7.80100302 8.9168649 -9 12 C-9.33 11.34 -9.66 10.68 -10 10 C-9.67 9.01 -9.34 8.02 -9 7 C-9.99 6.67 -10.98 6.34 -12 6 C-11.01 6 -10.02 6 -9 6 C-8.7525 5.21625 -8.505 4.4325 -8.25 3.625 C-7 1 -7 1 -5.0625 -0.375 C-3 -1 -3 -1 0 0 Z " fill="#93AC68" transform="translate(147,62)"/>
<path d="M0 0 C1.2065625 0.0309375 1.2065625 0.0309375 2.4375 0.0625 C2.7675 1.7125 3.0975 3.3625 3.4375 5.0625 C0.7975 5.3925 -1.8425 5.7225 -4.5625 6.0625 C-3.48963568 0.08511307 -3.48963568 0.08511307 0 0 Z " fill="#62970B" transform="translate(42.5625,36.9375)"/>
<path d="M0 0 C2 3 2 3 3 6 C3.66 5.01 4.32 4.02 5 3 C5.99 4.485 5.99 4.485 7 6 C8.32 5.67 9.64 5.34 11 5 C10.67 6.65 10.34 8.3 10 10 C9.01 10 8.02 10 7 10 C7 9.34 7 8.68 7 8 C6.01 8 5.02 8 4 8 C3.67 8.66 3.34 9.32 3 10 C0.96564469 6.27034861 0 4.33094958 0 0 Z " fill="#ACC38E" transform="translate(71,97)"/>
<path d="M0 0 C0.33 0 0.66 0 1 0 C1 4.62 1 9.24 1 14 C0.01 14 -0.98 14 -2 14 C-2.33 14.66 -2.66 15.32 -3 16 C-4.32 14.35 -5.64 12.7 -7 11 C-6.34 9.68 -5.68 8.36 -5 7 C-4.319375 8.2065625 -4.319375 8.2065625 -3.625 9.4375 C-2.25274335 12.08856572 -2.25274335 12.08856572 0 13 C0 8.71 0 4.42 0 0 Z " fill="#7FA552" transform="translate(33,68)"/>
<path d="M0 0 C2.7019433 0.36512747 4.58390852 0.69869237 6.8125 2.3125 C8 4 8 4 8 8 C4.82461668 7.65978036 3.97723135 6.97533396 1.75 4.5625 C0 2 0 2 0 0 Z " fill="#8AA65F" transform="translate(36,105)"/>
<path d="M0 0 C0.99 0 1.98 0 3 0 C3 2.31 3 4.62 3 7 C1.02 7 -0.96 7 -3 7 C-2.25 2.25 -2.25 2.25 0 0 Z " fill="#4C8119" transform="translate(74,37)"/>
<path d="M0 0 C0 4.08757455 -1.59063294 5.14700829 -4.3125 8.125 C-5.51326172 9.45917969 -5.51326172 9.45917969 -6.73828125 10.8203125 C-9 13 -9 13 -12 14 C-10.41332422 10.09714233 -7.86649519 7.66479018 -4.875 4.75 C-3.96492188 3.85796875 -3.05484375 2.9659375 -2.1171875 2.046875 C-1.41851562 1.37140625 -0.71984375 0.6959375 0 0 Z " fill="#DBE0CA" transform="translate(129,100)"/>
<path d="M0 0 C2.45103548 0.98041419 3.76758786 1.6513818 5.25 3.875 C6 6 6 6 6 10 C3.69 9.67 1.38 9.34 -1 9 C-0.01 8.34 0.98 7.68 2 7 C2.72382467 4.94074861 2.72382467 4.94074861 3 3 C2.01 3 1.02 3 0 3 C0 2.01 0 1.02 0 0 Z " fill="#7DA23C" transform="translate(117,35)"/>
<path d="M0 0 C0.33 0.99 0.66 1.98 1 3 C-0.98 4.65 -2.96 6.3 -5 8 C-5.66 7.67 -6.32 7.34 -7 7 C-7 7.99 -7 8.98 -7 10 C-8.32 9.67 -9.64 9.34 -11 9 C-10.01 8.67 -9.02 8.34 -8 8 C-8 7.34 -8 6.68 -8 6 C-6.25 4.4921875 -6.25 4.4921875 -4 2.875 C-3.2575 2.33617187 -2.515 1.79734375 -1.75 1.2421875 C-1.1725 0.83226563 -0.595 0.42234375 0 0 Z " fill="#6B962D" transform="translate(52,27)"/>
<path d="M0 0 C8.15384615 2 8.15384615 2 10 5 C9.5625 7.1015625 9.5625 7.1015625 9 9 C7.49704815 7.69088122 5.99770689 6.37761608 4.5 5.0625 C3.6646875 4.33160156 2.829375 3.60070312 1.96875 2.84765625 C1.3190625 2.23792969 0.669375 1.62820313 0 1 C0 0.67 0 0.34 0 0 Z " fill="#709130" transform="translate(85,10)"/>
<path d="M0 0 C1 2 1 2 1 5 C1.99 4.34 2.98 3.68 4 3 C3.25 5.9375 3.25 5.9375 2 9 C-0.125 9.875 -0.125 9.875 -2 10 C-2.25 3.375 -2.25 3.375 0 0 Z " fill="#B2C09A" transform="translate(71,123)"/>
<path d="M0 0 C2.67576692 1.00617682 3.7785108 1.54214546 5.046875 4.1640625 C5.27890625 4.97617188 5.5109375 5.78828125 5.75 6.625 C5.99234375 7.44226563 6.2346875 8.25953125 6.484375 9.1015625 C6.73960938 10.04128906 6.73960938 10.04128906 7 11 C6.34 11 5.68 11 5 11 C3.515 8.03 3.515 8.03 2 5 C1.01 5 0.02 5 -1 5 C-0.67 3.35 -0.34 1.7 0 0 Z " fill="#C2D4AD" transform="translate(78,117)"/>
<path d="M0 0 C0.66 0 1.32 0 2 0 C2 0.66 2 1.32 2 2 C2.99 2 3.98 2 5 2 C4.67 3.65 4.34 5.3 4 7 C2.68 7.33 1.36 7.66 0 8 C0 5.36 0 2.72 0 0 Z " fill="#699923" transform="translate(133,67)"/>
<path d="M0 0 C0.33 0 0.66 0 1 0 C1 4.62 1 9.24 1 14 C0.01 14 -0.98 14 -2 14 C-1.85970581 11.8537974 -1.71261836 9.70803782 -1.5625 7.5625 C-1.48128906 6.36753906 -1.40007813 5.17257813 -1.31640625 3.94140625 C-1 1 -1 1 0 0 Z " fill="#387B02" transform="translate(45,80)"/>
<path d="M0 0 C0.66 0 1.32 0 2 0 C0.68775452 3.93673644 -0.91910327 6.22719294 -4 9 C-4 8.34 -4 7.68 -4 7 C-4.66 6.67 -5.32 6.34 -6 6 C-4 4 -2 2 0 0 Z " fill="#799847" transform="translate(133,91)"/>
<path d="M0 0 C0.66 0 1.32 0 2 0 C1.38441495 4.0013028 -0.63737859 6.77824353 -3 10 C-3.99 10.495 -3.99 10.495 -5 11 C-4.34 9.35 -3.68 7.7 -3 6 C-3.99 5.67 -4.98 5.34 -6 5 C-5.38125 4.731875 -4.7625 4.46375 -4.125 4.1875 C-1.7004767 3.04443152 -1.7004767 3.04443152 0 0 Z " fill="#809F4E" transform="translate(131,76)"/>
<path d="M0 0 C-1.16757737 3.32310483 -2.14948857 5.83361132 -5 8 C-5.99 8 -6.98 8 -8 8 C-6.48291727 4.46014029 -4.24676932 0 0 0 Z " fill="#5E7F2B" transform="translate(116,113)"/>
<path d="M0 0 C1.98 0.99 1.98 0.99 4 2 C4.33 1.34 4.66 0.68 5 0 C6.65 1.98 8.3 3.96 10 6 C9.67 6.66 9.34 7.32 9 8 C8.01 7.01 7.02 6.02 6 5 C5.34 5.66 4.68 6.32 4 7 C0 2.25 0 2.25 0 0 Z " fill="#B2C297" transform="translate(23,92)"/>
<path d="M0 0 C0.99 0 1.98 0 3 0 C5.49118953 3.7367843 5.2065226 5.74451819 5.125 10.1875 C5.10695313 11.45980469 5.08890625 12.73210937 5.0703125 14.04296875 C5.03550781 15.50669922 5.03550781 15.50669922 5 17 C4.67 17 4.34 17 4 17 C3.67 12.71 3.34 8.42 3 4 C2.01 4 1.02 4 0 4 C0 2.68 0 1.36 0 0 Z " fill="#C1D1A8" transform="translate(91,78)"/>
<path d="M0 0 C2.0625 0.4375 2.0625 0.4375 4 1 C3.01 1.495 3.01 1.495 2 2 C2 3.65 2 5.3 2 7 C4.97 7.495 4.97 7.495 8 8 C8 8.33 8 8.66 8 9 C4.625 9.125 4.625 9.125 1 9 C-1 7 -1 7 -1.1875 3.9375 C-1 1 -1 1 0 0 Z " fill="#81AE49" transform="translate(80,36)"/>
<path d="M0 0 C0.33 0 0.66 0 1 0 C1.36552803 1.41377782 1.71695495 2.83120576 2.0625 4.25 C2.25972656 5.03890625 2.45695312 5.8278125 2.66015625 6.640625 C3.01497267 9.10394822 2.76877544 10.65604132 2 13 C-1.52941176 5.5 -1.52941176 5.5 -1 1 C-0.67 0.67 -0.34 0.34 0 0 Z " fill="#5C892C" transform="translate(72,91)"/>
<path d="M0 0 C0.33 0 0.66 0 1 0 C1 2.97 1 5.94 1 9 C0.01 8.67 -0.98 8.34 -2 8 C-2.33 6.35 -2.66 4.7 -3 3 C-2.34 3 -1.68 3 -1 3 C-0.67 2.01 -0.34 1.02 0 0 Z " fill="#64901E" transform="translate(26,68)"/>
<path d="M0 0 C3.26954202 0.56371414 4.82575883 1.49962266 7 4 C6.67 4.66 6.34 5.32 6 6 C3.5625 5.25 3.5625 5.25 1 4 C0.1875 1.875 0.1875 1.875 0 0 Z " fill="#649319" transform="translate(110,31)"/>
<path d="M0 0 C0.33 0 0.66 0 1 0 C1.39169887 2.66355234 1.40564529 4.39224373 -0.11328125 6.66796875 C-1.36389317 8.1510888 -2.67864514 9.57954352 -4 11 C-4.33 10.01 -4.66 9.02 -5 8 C-4.34 8 -3.68 8 -3 8 C-2.87625 7.236875 -2.7525 6.47375 -2.625 5.6875 C-2 3 -2 3 0 0 Z " fill="#88A364" transform="translate(148,67)"/>
<path d="M0 0 C3.37503669 1.1858237 5.64722731 2.27573689 8 5 C7.01 5 6.02 5 5 5 C4.67 5.66 4.34 6.32 4 7 C4 6.34 4 5.68 4 5 C2.68 4.34 1.36 3.68 0 3 C0 2.01 0 1.02 0 0 Z " fill="#8AA65B" transform="translate(16,64)"/>
<path d="M0 0 C0.99 0 1.98 0 3 0 C3.25 2.3125 3.25 2.3125 3 5 C1 6.8125 1 6.8125 -1 8 C-0.67 5.36 -0.34 2.72 0 0 Z " fill="#688F39" transform="translate(72,121)"/>
<path d="M0 0 C1.65 0 3.3 0 5 0 C4.67 0.99 4.34 1.98 4 3 C5.32 2.67 6.64 2.34 8 2 C8.99 3.32 9.98 4.64 11 6 C3.49230769 4.52307692 3.49230769 4.52307692 1 1.875 C0.67 1.25625 0.34 0.6375 0 0 Z " fill="#4D8519" transform="translate(39,91)"/>
<path d="M0 0 C0.99 0.33 1.98 0.66 3 1 C2.67 1.99 2.34 2.98 2 4 C2.99 4 3.98 4 5 4 C5.66 5.32 6.32 6.64 7 8 C4 8 4 8 1.8125 6.25 C0 4 0 4 0 0 Z " fill="#5B8520" transform="translate(31,82)"/>
<path d="M0 0 C1.65 0 3.3 0 5 0 C5 0.66 5 1.32 5 2 C4.34 2 3.68 2 3 2 C3 3.65 3 5.3 3 7 C2.01 6.34 1.02 5.68 0 5 C-0.1875 2.375 -0.1875 2.375 0 0 Z " fill="#8BA959" transform="translate(5,59)"/>
<path d="M0 0 C1.5 1.375 1.5 1.375 3 3 C3 3.66 3 4.32 3 5 C2.34 5 1.68 5 1 5 C0.01 6.485 0.01 6.485 -1 8 C-1 7.01 -1 6.02 -1 5 C-1.66 5 -2.32 5 -3 5 C-2.67 3.68 -2.34 2.36 -2 1 C-1.67 1.33 -1.34 1.66 -1 2 C-0.67 1.34 -0.34 0.68 0 0 Z " fill="#95B069" transform="translate(33,57)"/>
<path d="M0 0 C0 3 0 3 -2 6 C-1.01 6 -0.02 6 1 6 C1 6.66 1 7.32 1 8 C-0.65 7.67 -2.3 7.34 -4 7 C-3.43628586 3.73045798 -2.50037734 2.17424117 0 0 Z " fill="#ADBD91" transform="translate(110,115)"/>
<path d="M0 0 C4.8 3.44615385 4.8 3.44615385 5.8125 6.25 C5.874375 6.8275 5.93625 7.405 6 8 C2.83884224 6.63016497 2.0072908 6.0109362 0 3 C0 2.01 0 1.02 0 0 Z " fill="#7E964E" transform="translate(45,114)"/>
<path d="M0 0 C1.46726798 3.81489674 0.43336419 6.29011622 -1 10 C-1.66 10 -2.32 10 -3 10 C-2.67 7.69 -2.34 5.38 -2 3 C-1.34 3 -0.68 3 0 3 C0 2.01 0 1.02 0 0 Z " fill="#4B7D1E" transform="translate(86,94)"/>
<path d="M0 0 C0.66 0 1.32 0 2 0 C2 4.62 2 9.24 2 14 C1.67 14 1.34 14 1 14 C1 10.7 1 7.4 1 4 C0.34 4 -0.32 4 -1 4 C-0.67 2.68 -0.34 1.36 0 0 Z " fill="#E2ECD8" transform="translate(119,73)"/>
<path d="M0 0 C0.33 0.66 0.66 1.32 1 2 C3.02463255 2.65213292 3.02463255 2.65213292 5 3 C5 3.99 5 4.98 5 6 C4.01 6 3.02 6 2 6 C1.67 6.66 1.34 7.32 1 8 C0.67 5.36 0.34 2.72 0 0 Z " fill="#487E0A" transform="translate(34,63)"/>
<path d="M0 0 C0 0.66 0 1.32 0 2 C-4.47058824 6 -4.47058824 6 -7 6 C-7 5.01 -7 4.02 -7 3 C-4.46815512 0.64276511 -3.52809907 0 0 0 Z " fill="#7B9B42" transform="translate(80,4)"/>
<path d="M0 0 C1.32 0.66 2.64 1.32 4 2 C4 2.66 4 3.32 4 4 C3.01 4 2.02 4 1 4 C1 4.66 1 5.32 1 6 C0.01 5.67 -0.98 5.34 -2 5 C-1.34 3.35 -0.68 1.7 0 0 Z " fill="#348107" transform="translate(112,90)"/>
<path d="M0 0 C1.65 0 3.3 0 5 0 C4.67 0.99 4.34 1.98 4 3 C4 2.34 4 1.68 4 1 C2.824375 2.2375 2.824375 2.2375 1.625 3.5 C-1 6 -1 6 -3 6 C-2 4 -1 2 0 0 Z " fill="#E0E6D3" transform="translate(142,65)"/>
<path d="M0 0 C0.99 0 1.98 0 3 0 C2.34 1.32 1.68 2.64 1 4 C0.34 4 -0.32 4 -1 4 C-1 4.66 -1 5.32 -1 6 C-1.99 5.67 -2.98 5.34 -4 5 C-2.1875 2.5 -2.1875 2.5 0 0 Z " fill="#799D48" transform="translate(69,11)"/>
<path d="M0 0 C0.66 0 1.32 0 2 0 C1.75 1.875 1.75 1.875 1 4 C-1.0625 5.25 -1.0625 5.25 -3 6 C-2.42655063 3.13275314 -2.1385485 2.1385485 0 0 Z " fill="#5D7F2B" transform="translate(120,105)"/>
<path d="M0 0 C0.66 0 1.32 0 2 0 C2 1.98 2 3.96 2 6 C0.68 5.67 -0.64 5.34 -2 5 C-1.125 1.125 -1.125 1.125 0 0 Z " fill="#698E1F" transform="translate(131,51)"/>
<path d="M0 0 C1.98 0 3.96 0 6 0 C6 0.99 6 1.98 6 3 C4.02 3 2.04 3 0 3 C0 2.01 0 1.02 0 0 Z " fill="#8DC25F" transform="translate(71,44)"/>
<path d="M0 0 C1.32 0.66 2.64 1.32 4 2 C4 3.32 4 4.64 4 6 C2.0625 5.1875 2.0625 5.1875 0 4 C-0.33 3.01 -0.66 2.02 -1 1 C-0.67 0.67 -0.34 0.34 0 0 Z " fill="#88A05F" transform="translate(23,88)"/>
<path d="M0 0 C0.66 0 1.32 0 2 0 C1.67 1.65 1.34 3.3 1 5 C1.99 5.33 2.98 5.66 4 6 C2.35 6 0.7 6 -1 6 C-1.042721 4.33388095 -1.04063832 2.66617115 -1 1 C-0.67 0.67 -0.34 0.34 0 0 Z " fill="#41780B" transform="translate(82,37)"/>
<path d="M0 0 C0.99 0 1.98 0 3 0 C2.67 0.99 2.34 1.98 2 3 C1.34 3 0.68 3 0 3 C0 3.66 0 4.32 0 5 C-0.99 5 -1.98 5 -3 5 C-3 4.01 -3 3.02 -3 2 C-2.01 2 -1.02 2 0 2 C0 1.34 0 0.68 0 0 Z " fill="#72973D" transform="translate(57,22)"/>
<path d="M0 0 C0.33 0.99 0.66 1.98 1 3 C2.32 2.67 3.64 2.34 5 2 C4.67 2.66 4.34 3.32 4 4 C3.01 4 2.02 4 1 4 C0.67 4.66 0.34 5.32 0 6 C0 5.34 0 4.68 0 4 C-0.99 3.67 -1.98 3.34 -3 3 C-2.01 2.01 -1.02 1.02 0 0 Z " fill="#A2B97B" transform="translate(72,7)"/>
</svg>
